<svg width="12" height="15" viewBox="0 0 12 15" fill="none" xmlns="http://www.w3.org/2000/svg">
<path d="M11.1507 5.42514C10.7096 4.82167 10.2021 4.2696 9.63789 3.7793L9.62585 3.76907C9.59079 3.72923 9.54298 3.70283 9.49059 3.69437C9.43821 3.68592 9.38452 3.69594 9.33871 3.72271L9.33991 3.72211C9.29947 3.74216 9.26706 3.77538 9.24802 3.8163C9.22898 3.85722 9.22445 3.90341 9.23516 3.94725V3.94605L9.22674 3.94063C9.52713 4.49386 9.70592 5.15183 9.71073 5.85074V5.85194C9.71555 6.27936 9.68846 6.57854 9.68786 6.58396C9.67836 6.64236 9.66671 6.70039 9.65294 6.75794C9.61742 6.93191 9.38024 7.44481 9.04433 7.30394C8.70842 7.16307 8.68796 6.6243 8.68796 6.6243H8.68314C8.5701 4.44763 7.6037 2.40323 5.99346 0.934303L5.98683 0.928283L5.98382 0.925273L5.98081 0.922263C5.67504 0.651915 5.34427 0.411242 4.99295 0.203489L4.96285 0.187236C4.93243 0.173237 4.90324 0.156726 4.87556 0.137872L4.87918 0.139678C4.8364 0.112599 4.79127 0.0894289 4.74433 0.0704498L4.73771 0.0680419C4.70761 0.0523902 4.67631 0.0403504 4.6438 0.0259027C4.61205 0.0103091 4.57739 0.00154866 4.54205 0.000187371C4.50671 -0.00117391 4.47148 0.00489426 4.43863 0.0179998C4.40578 0.0311053 4.37605 0.0509567 4.35135 0.0762711C4.32665 0.101586 4.30754 0.1318 4.29525 0.164962L4.29465 0.166768C4.27787 0.405608 4.31832 0.645005 4.41264 0.865074L4.40902 0.855442C4.80573 1.85775 5.0363 3.01839 5.0363 4.2332C5.0363 4.95679 4.95442 5.66111 4.80032 6.33775L4.81236 6.27454C4.77583 6.41811 4.70521 6.55075 4.60649 6.66121C4.50777 6.77166 4.38386 6.85668 4.24528 6.90904L4.23926 6.91084C4.06989 6.92705 3.89994 6.8863 3.75634 6.79504C3.61274 6.70377 3.50368 6.56721 3.44644 6.40698L3.44464 6.40156C3.42899 6.35822 3.40972 6.31788 3.39768 6.27093V6.2625C3.10752 5.22828 3.4633 3.67937 3.71192 2.81612C3.87867 2.17741 3.09488 2.81612 3.09488 2.81612H3.09187C2.93736 2.94655 2.77242 3.09303 2.59704 3.25557V3.24955C2.37611 3.45182 2.08414 3.73234 1.78375 4.0532C1.62122 4.22718 -0.545339 6.61105 0.130091 9.86721C0.800104 12.5196 3.16532 14.4513 5.98142 14.4513C9.04012 14.4513 11.5667 12.1722 11.9555 9.22007L11.9586 9.18937C11.973 9.06957 11.9862 8.95038 11.9923 8.83179C11.9947 8.79406 11.9965 8.75553 11.9977 8.7162C12.0296 7.55051 11.7312 6.39956 11.1368 5.39624L11.1525 5.42514H11.1507Z" fill="#FF7F0F"/>
</svg>
