<svg width="360" height="800" viewBox="0 0 360 800" fill="none" xmlns="http://www.w3.org/2000/svg">
<g clip-path="url(#clip0_2607_17)">
<rect width="360" height="800" fill="white"/>
<rect width="360" height="800" fill="#8636E8"/>
<path d="M57.896 416C57.576 416 57.304 415.888 57.08 415.664C56.856 415.44 56.744 415.168 56.744 414.848V383.6C56.744 383.248 56.856 382.96 57.08 382.736C57.304 382.512 57.576 382.4 57.896 382.4H69.608C72.84 382.4 75.496 382.896 77.576 383.888C79.688 384.88 81.272 386.352 82.328 388.304C83.416 390.256 83.976 392.64 84.008 395.456C84.072 396.864 84.104 398.112 84.104 399.2C84.104 400.288 84.072 401.52 84.008 402.896C83.944 405.872 83.4 408.336 82.376 410.288C81.352 412.208 79.8 413.648 77.72 414.608C75.672 415.536 73.048 416 69.848 416H57.896ZM63.416 410.48H69.608C71.4 410.48 72.856 410.224 73.976 409.712C75.096 409.2 75.912 408.384 76.424 407.264C76.968 406.112 77.256 404.608 77.288 402.752C77.32 401.792 77.336 400.96 77.336 400.256C77.368 399.52 77.368 398.8 77.336 398.096C77.336 397.36 77.32 396.528 77.288 395.6C77.224 392.976 76.568 391.04 75.32 389.792C74.072 388.544 72.088 387.92 69.368 387.92H63.416V410.48ZM100.67 416.48C97.118 416.48 94.302 415.456 92.222 413.408C90.142 411.36 89.022 408.448 88.862 404.672C88.83 404.352 88.814 403.952 88.814 403.472C88.814 402.96 88.83 402.56 88.862 402.272C88.99 399.872 89.534 397.792 90.494 396.032C91.486 394.272 92.846 392.928 94.574 392C96.302 391.04 98.334 390.56 100.67 390.56C103.262 390.56 105.438 391.104 107.198 392.192C108.958 393.248 110.286 394.736 111.182 396.656C112.078 398.544 112.526 400.736 112.526 403.232V404.24C112.526 404.56 112.414 404.832 112.19 405.056C111.966 405.28 111.678 405.392 111.326 405.392H95.39C95.39 405.392 95.39 405.44 95.39 405.536C95.39 405.632 95.39 405.712 95.39 405.776C95.422 406.896 95.63 407.936 96.014 408.896C96.43 409.824 97.022 410.576 97.79 411.152C98.59 411.728 99.534 412.016 100.622 412.016C101.518 412.016 102.27 411.888 102.878 411.632C103.486 411.344 103.982 411.024 104.366 410.672C104.75 410.32 105.022 410.032 105.182 409.808C105.47 409.424 105.694 409.2 105.854 409.136C106.046 409.04 106.318 408.992 106.67 408.992H110.798C111.118 408.992 111.374 409.088 111.566 409.28C111.79 409.472 111.886 409.712 111.854 410C111.822 410.512 111.55 411.136 111.038 411.872C110.558 412.608 109.854 413.328 108.926 414.032C107.998 414.736 106.83 415.328 105.422 415.808C104.046 416.256 102.462 416.48 100.67 416.48ZM95.39 401.36H105.998V401.216C105.998 399.968 105.79 398.88 105.374 397.952C104.958 397.024 104.35 396.288 103.55 395.744C102.75 395.2 101.79 394.928 100.67 394.928C99.55 394.928 98.59 395.2 97.79 395.744C96.99 396.288 96.382 397.024 95.966 397.952C95.582 398.88 95.39 399.968 95.39 401.216V401.36ZM125.562 416C125.051 416 124.667 415.888 124.411 415.664C124.187 415.408 123.995 415.12 123.835 414.8L114.859 392.528C114.795 392.368 114.763 392.224 114.763 392.096C114.763 391.808 114.859 391.568 115.051 391.376C115.275 391.152 115.531 391.04 115.819 391.04H119.707C120.091 391.04 120.379 391.152 120.571 391.376C120.763 391.568 120.891 391.76 120.955 391.952L127.339 408.8L133.723 391.952C133.787 391.76 133.915 391.568 134.107 391.376C134.299 391.152 134.587 391.04 134.971 391.04H138.906C139.163 391.04 139.387 391.152 139.579 391.376C139.803 391.568 139.915 391.808 139.915 392.096C139.915 392.224 139.899 392.368 139.867 392.528L130.843 414.8C130.715 415.12 130.523 415.408 130.267 415.664C130.011 415.888 129.627 416 129.115 416H125.562ZM167.532 416.48C164.556 416.48 162.028 415.968 159.948 414.944C157.9 413.888 156.332 412.4 155.244 410.48C154.156 408.528 153.548 406.192 153.42 403.472C153.388 402.16 153.372 400.752 153.372 399.248C153.372 397.744 153.388 396.304 153.42 394.928C153.548 392.24 154.156 389.92 155.244 387.968C156.364 386.016 157.948 384.528 159.996 383.504C162.076 382.448 164.588 381.92 167.532 381.92C169.708 381.92 171.66 382.208 173.388 382.784C175.116 383.36 176.588 384.16 177.804 385.184C179.02 386.176 179.964 387.344 180.636 388.688C181.308 390.032 181.66 391.488 181.692 393.056C181.724 393.344 181.628 393.584 181.404 393.776C181.212 393.968 180.972 394.064 180.684 394.064H176.124C175.772 394.064 175.484 393.984 175.26 393.824C175.036 393.632 174.876 393.328 174.78 392.912C174.268 390.8 173.388 389.36 172.14 388.592C170.892 387.824 169.34 387.44 167.484 387.44C165.34 387.44 163.628 388.048 162.348 389.264C161.068 390.448 160.38 392.416 160.284 395.168C160.188 397.792 160.188 400.48 160.284 403.232C160.38 405.984 161.068 407.968 162.348 409.184C163.628 410.368 165.34 410.96 167.484 410.96C169.34 410.96 170.892 410.576 172.14 409.808C173.388 409.008 174.268 407.568 174.78 405.488C174.876 405.04 175.036 404.736 175.26 404.576C175.484 404.416 175.772 404.336 176.124 404.336H180.684C180.972 404.336 181.212 404.432 181.404 404.624C181.628 404.816 181.724 405.056 181.692 405.344C181.66 406.912 181.308 408.368 180.636 409.712C179.964 411.056 179.02 412.24 177.804 413.264C176.588 414.256 175.116 415.04 173.388 415.616C171.66 416.192 169.708 416.48 167.532 416.48ZM194.057 416.48C192.393 416.48 190.889 416.16 189.545 415.52C188.201 414.848 187.129 413.968 186.329 412.88C185.561 411.76 185.177 410.512 185.177 409.136C185.177 406.896 186.073 405.12 187.865 403.808C189.689 402.464 192.089 401.568 195.065 401.12L201.641 400.16V399.152C201.641 397.808 201.305 396.768 200.633 396.032C199.961 395.296 198.809 394.928 197.177 394.928C196.025 394.928 195.081 395.168 194.345 395.648C193.641 396.096 193.113 396.704 192.761 397.472C192.505 397.888 192.137 398.096 191.657 398.096H187.865C187.513 398.096 187.241 398 187.049 397.808C186.889 397.616 186.809 397.36 186.809 397.04C186.841 396.528 187.049 395.904 187.433 395.168C187.817 394.432 188.425 393.728 189.257 393.056C190.089 392.352 191.161 391.76 192.473 391.28C193.785 390.8 195.369 390.56 197.225 390.56C199.241 390.56 200.937 390.816 202.313 391.328C203.721 391.808 204.841 392.464 205.673 393.296C206.505 394.128 207.113 395.104 207.497 396.224C207.881 397.344 208.073 398.528 208.073 399.776V414.848C208.073 415.168 207.961 415.44 207.737 415.664C207.513 415.888 207.241 416 206.921 416H203.033C202.681 416 202.393 415.888 202.169 415.664C201.977 415.44 201.881 415.168 201.881 414.848V412.976C201.465 413.584 200.905 414.16 200.201 414.704C199.497 415.216 198.633 415.648 197.609 416C196.617 416.32 195.433 416.48 194.057 416.48ZM195.689 411.92C196.809 411.92 197.817 411.68 198.713 411.2C199.641 410.72 200.361 409.984 200.873 408.992C201.417 407.968 201.689 406.688 201.689 405.152V404.144L196.889 404.912C195.001 405.2 193.593 405.664 192.665 406.304C191.737 406.944 191.273 407.728 191.273 408.656C191.273 409.36 191.481 409.968 191.897 410.48C192.345 410.96 192.905 411.328 193.577 411.584C194.249 411.808 194.953 411.92 195.689 411.92ZM215.383 416C215.063 416 214.791 415.888 214.567 415.664C214.343 415.44 214.23 415.168 214.23 414.848V392.24C214.23 391.888 214.343 391.6 214.567 391.376C214.791 391.152 215.063 391.04 215.383 391.04H219.271C219.591 391.04 219.863 391.152 220.087 391.376C220.343 391.6 220.471 391.888 220.471 392.24V394.208C221.207 393.184 222.151 392.4 223.303 391.856C224.487 391.312 225.847 391.04 227.383 391.04H229.351C229.703 391.04 229.975 391.152 230.167 391.376C230.391 391.6 230.503 391.872 230.503 392.192V395.648C230.503 395.968 230.391 396.24 230.167 396.464C229.975 396.688 229.703 396.8 229.351 396.8H225.607C224.071 396.8 222.871 397.232 222.007 398.096C221.175 398.96 220.759 400.144 220.759 401.648V414.848C220.759 415.168 220.647 415.44 220.423 415.664C220.199 415.888 219.911 416 219.559 416H215.383ZM244.67 416.48C241.118 416.48 238.302 415.456 236.222 413.408C234.142 411.36 233.022 408.448 232.862 404.672C232.83 404.352 232.814 403.952 232.814 403.472C232.814 402.96 232.83 402.56 232.862 402.272C232.99 399.872 233.534 397.792 234.494 396.032C235.486 394.272 236.846 392.928 238.574 392C240.302 391.04 242.334 390.56 244.67 390.56C247.262 390.56 249.438 391.104 251.198 392.192C252.958 393.248 254.286 394.736 255.182 396.656C256.078 398.544 256.526 400.736 256.526 403.232V404.24C256.526 404.56 256.414 404.832 256.19 405.056C255.966 405.28 255.678 405.392 255.326 405.392H239.39C239.39 405.392 239.39 405.44 239.39 405.536C239.39 405.632 239.39 405.712 239.39 405.776C239.422 406.896 239.63 407.936 240.014 408.896C240.43 409.824 241.022 410.576 241.79 411.152C242.59 411.728 243.534 412.016 244.622 412.016C245.518 412.016 246.27 411.888 246.878 411.632C247.486 411.344 247.982 411.024 248.366 410.672C248.75 410.32 249.022 410.032 249.182 409.808C249.47 409.424 249.694 409.2 249.854 409.136C250.046 409.04 250.318 408.992 250.67 408.992H254.798C255.118 408.992 255.374 409.088 255.566 409.28C255.79 409.472 255.886 409.712 255.854 410C255.822 410.512 255.55 411.136 255.038 411.872C254.558 412.608 253.854 413.328 252.926 414.032C251.998 414.736 250.83 415.328 249.422 415.808C248.046 416.256 246.462 416.48 244.67 416.48ZM239.39 401.36H249.998V401.216C249.998 399.968 249.79 398.88 249.374 397.952C248.958 397.024 248.35 396.288 247.55 395.744C246.75 395.2 245.79 394.928 244.67 394.928C243.55 394.928 242.59 395.2 241.79 395.744C240.99 396.288 240.382 397.024 239.966 397.952C239.582 398.88 239.39 399.968 239.39 401.216V401.36ZM272.373 416.48C268.821 416.48 266.005 415.456 263.925 413.408C261.845 411.36 260.725 408.448 260.565 404.672C260.533 404.352 260.517 403.952 260.517 403.472C260.517 402.96 260.533 402.56 260.565 402.272C260.693 399.872 261.237 397.792 262.197 396.032C263.189 394.272 264.549 392.928 266.277 392C268.005 391.04 270.037 390.56 272.373 390.56C274.965 390.56 277.141 391.104 278.901 392.192C280.661 393.248 281.989 394.736 282.885 396.656C283.781 398.544 284.229 400.736 284.229 403.232V404.24C284.229 404.56 284.117 404.832 283.893 405.056C283.669 405.28 283.381 405.392 283.029 405.392H267.093C267.093 405.392 267.093 405.44 267.093 405.536C267.093 405.632 267.093 405.712 267.093 405.776C267.125 406.896 267.333 407.936 267.717 408.896C268.133 409.824 268.725 410.576 269.493 411.152C270.293 411.728 271.237 412.016 272.325 412.016C273.221 412.016 273.973 411.888 274.581 411.632C275.189 411.344 275.685 411.024 276.069 410.672C276.453 410.32 276.725 410.032 276.885 409.808C277.173 409.424 277.397 409.2 277.557 409.136C277.749 409.04 278.021 408.992 278.373 408.992H282.501C282.821 408.992 283.077 409.088 283.269 409.28C283.493 409.472 283.589 409.712 283.557 410C283.525 410.512 283.253 411.136 282.741 411.872C282.261 412.608 281.557 413.328 280.629 414.032C279.701 414.736 278.533 415.328 277.125 415.808C275.749 416.256 274.165 416.48 272.373 416.48ZM267.093 401.36H277.701V401.216C277.701 399.968 277.493 398.88 277.077 397.952C276.661 397.024 276.053 396.288 275.253 395.744C274.453 395.2 273.493 394.928 272.373 394.928C271.253 394.928 270.293 395.2 269.493 395.744C268.693 396.288 268.085 397.024 267.669 397.952C267.285 398.88 267.093 399.968 267.093 401.216V401.36ZM290.476 416C290.156 416 289.884 415.888 289.66 415.664C289.436 415.44 289.324 415.168 289.324 414.848V392.24C289.324 391.888 289.436 391.6 289.66 391.376C289.884 391.152 290.156 391.04 290.476 391.04H294.364C294.684 391.04 294.956 391.152 295.18 391.376C295.436 391.6 295.564 391.888 295.564 392.24V394.208C296.3 393.184 297.244 392.4 298.396 391.856C299.58 391.312 300.94 391.04 302.476 391.04H304.444C304.796 391.04 305.068 391.152 305.26 391.376C305.484 391.6 305.596 391.872 305.596 392.192V395.648C305.596 395.968 305.484 396.24 305.26 396.464C305.068 396.688 304.796 396.8 304.444 396.8H300.7C299.164 396.8 297.964 397.232 297.1 398.096C296.268 398.96 295.852 400.144 295.852 401.648V414.848C295.852 415.168 295.74 415.44 295.516 415.664C295.292 415.888 295.004 416 294.652 416H290.476Z" fill="white"/>
</g>
<defs>
<clipPath id="clip0_2607_17">
<rect width="360" height="800" fill="white"/>
</clipPath>
</defs>
</svg>
