<svg width="23" height="23" viewBox="0 0 23 23" fill="none" xmlns="http://www.w3.org/2000/svg">
<path d="M16.6481 9.99075V13.6945C16.6481 13.9352 16.6389 14.1667 16.6111 14.3889C16.3981 16.8889 14.9259 18.1296 12.213 18.1296H11.8426C11.6111 18.1296 11.3889 18.2407 11.25 18.4259L10.1389 19.9074C9.64814 20.5648 8.85184 20.5648 8.3611 19.9074L7.24997 18.4259C7.1296 18.2685 6.8611 18.1296 6.65739 18.1296H6.28703C3.33333 18.1296 1.85184 17.3982 1.85184 13.6945V9.99075C1.85184 7.27779 3.10184 5.80557 5.59259 5.5926C5.81481 5.56482 6.04629 5.55556 6.28703 5.55556H12.213C15.1667 5.55556 16.6481 7.03705 16.6481 9.99075Z" stroke="#2D3443" stroke-width="1.66667" stroke-miterlimit="10" stroke-linecap="round" stroke-linejoin="round"/>
<path d="M20.3519 6.28705V9.99075C20.3519 12.713 19.1018 14.1759 16.6111 14.3889C16.6389 14.1667 16.6481 13.9352 16.6481 13.6945V9.99075C16.6481 7.03705 15.1667 5.55556 12.213 5.55556H6.28703C6.04629 5.55556 5.81481 5.56482 5.59259 5.5926C5.80555 3.10186 7.27778 1.85185 9.99074 1.85185H15.9167C18.8704 1.85185 20.3519 3.33334 20.3519 6.28705Z" stroke="#2D3443" stroke-width="1.66667" stroke-miterlimit="10" stroke-linecap="round" stroke-linejoin="round"/>
<path d="M12.4958 12.2685H12.5042" stroke="#2D3443" stroke-width="1.66667" stroke-linecap="round" stroke-linejoin="round"/>
<path d="M9.25509 12.2685H9.26342" stroke="#2D3443" stroke-width="1.66667" stroke-linecap="round" stroke-linejoin="round"/>
<path d="M6.01434 12.2685H6.02267" stroke="#2D3443" stroke-width="1.66667" stroke-linecap="round" stroke-linejoin="round"/>
</svg>
